<?xml version="1.0" encoding="UTF-8"?>
<svg id="Capa_2" data-name="Capa 2" xmlns="http://www.w3.org/2000/svg" viewBox="0 0 294.34 460.46">
  <defs>
    <style>
      .cls-1 {
        fill: #f0e4b6;
        stroke: #f0e4b6;
        stroke-miterlimit: 10;
      }
    </style>
  </defs>
  <g id="Capa_1-2" data-name="Capa 1">
    <g>
      <path class="cls-1" d="M32.44,200.52c-7.24-13.42-10.48-27.91-12.48-42.92-.96-7.23.89-12.13,6.06-17.12,11.15-10.76,21.68-22.15,32.43-33.32,1.32-1.38,2.21-1.06,2.94.4,3.93,7.84,10.14,13.89,15.97,20.21,4.86,5.27,10.28,9.99,14.11,16.2,1.94,3.14,5.13,4.38,8.89,3.16,3.36-1.08,5.19-3.59,5.51-6.93.36-3.73-1.32-7.12-4.81-8.18-7.65-2.32-11.99-8.6-17.23-13.67-5.89-5.69-11.53-11.8-14.54-19.72-2.84-7.45-2.17-14.48,2.66-20.94,10.89-14.57,28.61-15.81,41.33-2.83,4.11,4.19,8,8.61,12.06,12.84.83.87,1.68,2.47,3.16,1.7,1.22-.63,1.18-2.27,1.23-3.54.11-2.79-.75-5.41-1.8-7.97-.79-1.91-1.94-3.69-2.23-6.22,16.8,2.28,33.85.93,50.21,5.49,13.3,3.71,24.92,10.41,34.79,20.41,10.45,10.59,21.74,20.36,32.46,30.69,5.32,5.13,10.2,10.72,14.99,17.12-8.2,0-16.41-.02-24.61.03-1.1,0-2.67-.54-3.23.58-.69,1.38.78,2.38,1.65,3.23,3.56,3.49,6.48,7.51,9.74,11.24,5.5,6.31,3.52,13.6,2.85,20.55-.36,3.68-7.5,7.4-12.11,7.42-14.77.07-29.54.13-44.3.25-3.26.03-6.52.29-9.79.45,1.34-1.78,3.28-1.33,5.05-1.29,15.26.39,30.49-.49,45.73-.87,1.22-.03,2.8.39,3.21-1.41.47-2.06-1.34-2.09-2.53-2.78-1.8-1.04-3.68-1.23-5.66-1.14-5.2.23-10.41.63-15.61.67-13.96.11-27.92.08-41.88.04-2.05,0-4.19.31-6.14-.73,2.27-.16,4.54-.33,6.8-.49.6.65,1.19.64,1.78,0,1.5,0,2.99-.02,4.49-.03.34.49.67.47,1-.02.73,0,1.46,0,2.19,0,1.87.85,3.75.78,5.62,0,1.27,0,2.54-.01,3.81-.02.56.51,1.1.5,1.64-.03,12.13-.26,24.26-.31,36.39-.67,5.54-.16,3.18-3.59,3.67-5.99.72-3.56-1.62-3.2-3.92-3.2-18.53.05-37.05.05-55.58.07-1.4-.89-3-.54-4.51-.68-1.23-.11-2.63-.47-2.56-1.81.17-2.95-2.09-3.37-3.91-4.33,2.61-.08,5.21-.19,7.82-.22,18.39-.23,36.77-.38,55.16-.68,5.98-.1,5.81-.27,5.99-6.32.08-2.75-.87-2.96-3.3-2.92-21.25.4-42.5.61-63.75-.05-1.1-.03-2.14-.28-2.24,1.29-1.43-.87-2.08-1.23-3.41.84-1.57,2.45-3.66,5.87-7.04,5.73-6.91-.29-7.98-.08-10.76,5.37-.03-.63-.03-1.27-.08-1.9-.42-5.06-4.98-8.95-9.56-8.17-4.48.76-7.2,5.42-6.09,10.46-.36.09-.95.36-1.04.24-2.32-2.94-5.9-1.29-8.54-2.38-3.92-1.63-5.11.51-6.53,3.13-.08.15-.48.13-.73.19,2.02-4.34.49-9.12-3.46-10.8-4.17-1.77-7.41,0-9.47,5.2-2.01-3.8-3.51-.25-3.77.72-.85,3.15-3.37,3.08-5.63,3.92-3.95,1.46-9.58.62-10.23,7.07-.06.6-1.77,1.6-2.55,1.47-2.62-.45-6.33-.52-7.48-2.21-2.42-3.54-5.44-1.83-8-1.84-1.42,0-5.3,1.35-4.68,2.4,2.17,3.68-.92,4.71-2.35,6.64-3.33-2.17-6.54-2.15-9.18,1-2.26,2.7-2.22,5.62.1,8.39-4.18.34-4.63,3.09-4.22,6.46.12,1,.05,2.03.07,3.05ZM143.64,104.32c.09,1.34,1.29,1.84,2.1,2.64,4.72,4.65,9.9,8.78,14.6,13.5,6.31,6.34,14.06,10.22,23.52,9.31,3.51-.34,7.05-.24,10.57-.49,4.7-.33,8.77.89,12.07,4.35,1.19,1.25,2.58,2.2,4.16,2.89,2.18.95,3.46.34,3.92-2.08.79-4.12-1.14-7.19-3.55-10.21-5.37-6.74-12.1-12.1-18.07-18.22-1-1.02-2.06-1.46-3.45-1.47-6.27-.05-12.55-.35-18.82-.17-9.02.25-18.02.35-27.05-.06ZM80.3,92.33c-.03,7.75,4.61,12.53,10.24,17.02,8.49,6.77,12.89,6.75,20.17-1.08,1.22-1.32,2.27-2.84,3.18-4.39.5-.85.75-1.97.76-2.97.11-10.07-5.3-17.99-14.79-21.8-9.65-3.87-19.55,2.82-19.56,13.21ZM119.48,139.42c.04,4.03,4.58,8.42,8.71,8.43,5.04.01,9.18-4.12,9.25-9.24.06-4.66-4.33-8.91-9.13-8.85-4.7.06-8.87,4.63-8.82,9.66ZM65.55,147.91c3.82.1,7.57-3.74,7.7-7.87.13-4.2-3.37-7.88-7.52-7.89-3.83,0-8.17,3.95-8.18,7.48-.01,3.69,4.33,8.19,8,8.28ZM73.23,166.83c-.05-5.38-2.76-8.87-6.83-8.78-3.65.08-6.7,3.4-6.72,7.3-.02,3.74,2.99,7.05,6.42,7.06,3.37.01,7.15-2.95,7.13-5.58ZM41.02,171.63c3.5-.04,7.03-3.36,7.04-6.62,0-3.34-3.79-7.06-7.18-7.02-3.77.03-6.61,3.01-6.52,6.84.09,3.85,3.03,6.84,6.66,6.8Z"/>
      <path class="cls-1" d="M135.87,167.48c2.78-5.45,3.85-5.65,10.76-5.37,3.37.14,5.47-3.28,7.04-5.73,1.32-2.07,1.98-1.71,3.41-.84.91,2.94-1.23,5.99.33,8.91,1.82.96,4.08,1.38,3.91,4.33-.08,1.34,1.33,1.7,2.56,1.81,1.52.14,3.11-.21,4.51.68-2.32.52-4.65.2-6.97.09-.93-.05-2-.17-1.88,1.2.26,3.04-.75,6.22.96,9.1,1.95,1.05,4.09.73,6.14.73,13.96.04,27.92.06,41.88-.04,5.21-.04,10.41-.43,15.61-.67,1.98-.09,3.86.1,5.66,1.14,1.19.69,3,.71,2.53,2.78-.41,1.81-1.99,1.38-3.21,1.41-15.24.38-30.48,1.26-45.73.87-1.77-.05-3.72-.5-5.05,1.29-3.64.65-7.31.38-10.93-.05-2.25-.27-3.26-.02-3.51,2.56-.6,5.96-.51,6.29,5.5,6.27,22.49-.06,44.98-.19,67.47-.24,1.18,0,2.85-.8,3.44.84.53,1.45-1,2.05-1.78,3.04-5.52,7.03-13.06,9.11-21.47,9.04-26.53-.23-53.08.51-79.59-1.43-16.97-1.24-29.32-9.13-36.85-24.46-.9-1.82-1.59-4.11-4.07-4.37-2.42-.25-5.34-1.2-7.06.95-1.54,1.93-.42,4.52.39,6.74,1,2.75,2.85,4.98,4.58,7.27,1.32,1.74,2.65,3.48,3.94,5.17-.9,1.2-1.89.7-2.71.75-4.14.26-6.09,2.21-5.94,6.06.13,3.33,2.53,5.45,6.29,5.56.63.02,1.25.11,1.88.16,2.72-1.13,5.45-1.3,8.37-.66,1.66.36,3.5,1.02,5.25.05,1.1.02,2.04.35,2.55,1.42,0,0,.32-.07.32-.07l.2.27c1.52-.09,2.75.73,4.05,1.3,8.03,3.48,16.23,5.58,25.15,4.53,3.85-.45,7.82.16,11.74.34.85.04,2-.18,2.33.95.24.84-.51,1.42-1.07,1.96-4.63,4.49-7.8,10.1-11.42,15.32-3.36,4.85-4.18,10.7-4.58,16.43-.57,8.08-.64,16.19-.49,24.3.06,3.04,1.04,4.07,4.09,4.11,26.68.36,51.46-6.02,74.2-20.18,14.71-9.16,26.56-21.21,37.07-34.85,8.67-11.26,15.05-23.61,19.98-36.89,4.12-11.12,5.65-22.67,6.74-34.31.29-3.09,1.6-3.5,4.14-3.55,7.12-.13,7.12-.2,6.72,6.73-1.26,21.62-8.02,41.5-19.02,60.03-15.99,26.95-37.67,47.89-66.52,60.44-32.71,14.23-66.4,17.07-101.05,6.93-27.86-8.15-50.39-24.22-70.06-44.91-5.57-5.86-10.07-12.45-14.42-19.33-8.06-12.74-13.39-26.45-17.62-40.73-.25-.85-.2-1.78-.29-2.68.8-.83.97-1.62-.16-2.32,0,0,.06.1.06.1.05-.64.09-1.29.16-1.93.24-2.13-.92-5.12,2.63-5.44,3.16-.29,5.04,1.57,5.73,4.58.25,1.11.8,1.87,1.8,2.35,3.33,6.66,4.53,14.04,7.23,20.95,5.9,15.04,14.98,27.9,24.97,40.42,8.42,10.55,20.03,16.58,30.66,24.04,11.75,8.24,24.91,13.02,39.09,15.02,2.64.37,7.32,1.34,7.51-.39.29-2.78-3.94-1.99-6.22-2.64-11.72-3.32-23.14-7.26-33.13-14.5-.21-.15-.43-.3-.64-.46-1.65-1.31-4.11-2.91-3.56-4.75.56-1.88,3.46-.9,5.31-.92,12.55-.13,25.11-.41,37.65-.08,4.84.13,4.26-2.65,4.56-5.6.37-3.62-2.09-3.3-4.29-3.3-18.17,0-36.35.01-54.52.1-2.2.01-4.07-.37-5.77-1.84-12.29-10.67-21.91-23.38-29.12-37.95-.16-.33-.14-.76-.2-1.14,1.12-1.99-.18-2.96-1.64-3.84,0,0,.07.09.07.09-.02-1.02.05-2.04-.07-3.05-.41-3.37.04-6.12,4.22-6.46.2.19.39.37.59.56.4.36.8.71,1.2,1.07l.21-.17.19.2c.27.25.54.5.8.75l-.07-.1c2.61,2.57,3.78,2.39,5.46-.8l-.06.11c.3-.29.6-.58.9-.87l-.1.07c3.86-2.25,4.2-5.91.8-8.62,0,0,.09.06.09.06-.24-.23-.47-.46-.71-.69-.07-.31-.14-.61-.22-.92,1.44-1.93,4.52-2.95,2.35-6.64-.62-1.05,3.26-2.41,4.68-2.4,2.56.01,5.58-1.7,8,1.84,1.15,1.68,4.87,1.76,7.48,2.21.78.13,2.49-.86,2.55-1.47.66-6.45,6.28-5.61,10.23-7.07,2.26-.84,4.78-.77,5.63-3.92.26-.97,1.76-4.53,3.77-.72.05.9.08,1.79.14,2.69.38,5.59,4.83,8.15,9.79,5.65.62-.31,1.03-1.22,1.95-.7.27-.55.55-1.11.82-1.66l-.06-.29.28-.1c.25-.06.65-.04.73-.19,1.41-2.63,2.61-4.76,6.53-3.13,2.63,1.09,6.22-.56,8.54,2.38.09.12.68-.15,1.04-.24,6.04,6.74,9.55,6.83,14.93.36.33-.27.65-.55.98-.82l-.17.08ZM93.37,233.61v.4c8.88,0,17.77.05,26.65-.03,3.13-.03,6.29-.14,9.37-.63,4.19-.67,4.16-4.52,4.25-7.41.1-3.17-2.96-1.66-4.52-1.69-7.96-.12-15.93.16-23.9.07-14.76-.17-29.52-.59-44.27.22-1.12.06-2.49-.29-3.23.91-1.46,2.38,1.53,8.12,4.3,8.14,10.45.07,20.9.03,31.34.03ZM72.77,187.39c0-5.65-1.05-6.98-5.44-6.91-5.16.08-7.02,1.82-7.1,6.66-.07,4.44,1.86,6.3,6.5,6.26,4.78-.05,6.04-1.3,6.04-6ZM73.13,206.87c.02-3.82-2.19-6.11-5.97-6.17-4.12-.07-6.95,2.45-6.98,6.2-.03,4.18,2.5,6.63,6.78,6.57,3.63-.05,6.14-2.74,6.17-6.59ZM128.72,181.81c-5.72.04-8.05,1.5-8.06,5.05-.01,3.84,2.91,6.47,7.18,6.46,4.02-.01,6.58-2.41,6.52-6.09-.06-3.48-2.1-5.45-5.63-5.42ZM48,206.18c-.33-2.29-.98-4.84-4.4-4.98-2.54-.1-5.56,2.78-5.56,5.09,0,2.78,3.16,6.51,5.39,6.37,2.27-.15,4.64-3.27,4.58-6.48Z"/>
      <path class="cls-1" d="M280.46,118.73c-2.3-9.09-4.43-18.23-8.52-26.75-8.46-17.64-19.2-33.7-33.99-46.62-13.61-11.88-29.05-20.89-46.15-26.97-22.37-7.95-45.37-9.13-68.5-5.41-30.56,4.91-56.13,20.07-76.57,42.74-17.44,19.34-29.55,42.06-33.52,68.35-.74,4.9-1.01,9.88-1.29,14.84-.11,2.05-.77,2.72-2.82,2.51-10.4-1.07-8.96,1.01-7.8-8.85C7.68,78.24,35.84,39.02,84.54,14.41,108.33,2.38,133.73-.74,160,.91c22.97,1.44,44.14,8.64,63.71,20.45,28.8,17.37,48.49,42.46,60.9,73.48,2.58,6.46,4.22,13.21,5.4,20.07-1.05-.18-1.66-.95-1.72-1.87-.19-2.96-2.59-3.53-4.42-3.07-2.11.54-3.33,2.64-2.82,5.14.26,1.3.55,2.57-.59,3.63Z"/>
      <path class="cls-1" d="M280.46,118.73c1.14-1.06.85-2.33.59-3.63-.51-2.5.71-4.6,2.82-5.14,1.82-.46,4.23.11,4.42,3.07.06.93.66,1.69,1.72,1.87,0,0-.12-.08-.12-.08-1.2,4.45.03,8.31,2.86,11.79.78,2.39.88,4.86.99,7.34.32,7.56.32,7.4-7.37,7.58-3.23.08-4.37-.89-4.3-4.13.14-6.26-.99-12.45-1.6-18.67Z"/>
      <path class="cls-1" d="M14.48,177.32c-1-.48-1.55-1.25-1.8-2.35-.69-3.01-2.57-4.87-5.73-4.58-3.55.33-2.39,3.31-2.63,5.44-.07.64-.11,1.29-.16,1.93-2.74-7.2-2.47-14.82-3.16-22.3-.05-.57.09-1.22.64-1.24,3-.14,6.01-.24,9.01-.2.73.01.7.95.72,1.6.28,7.34,2.17,14.45,3.11,21.7Z"/>
      <path class="cls-1" d="M111.53,212.4c-1.75.97-3.59.32-5.25-.05-2.93-.64-5.65-.47-8.37.66,2.47-2.17,3.77-4.9,3.89-8.19l-.14-.07c3.03,2.89,6.02,5.82,9.87,7.65Z"/>
      <path class="cls-1" d="M292.75,126.61c-2.84-3.47-4.07-7.33-2.86-11.79,2.2,3.63,1.88,7.86,2.86,11.79Z"/>
      <path class="cls-1" d="M32.37,200.43c1.47.89,2.76,1.85,1.64,3.84-.55-1.28-1.1-2.56-1.64-3.84Z"/>
      <path class="cls-1" d="M4.11,177.66c1.12.7.96,1.49.16,2.32-.05-.77-.1-1.55-.16-2.32Z"/>
      <path class="cls-1" d="M101.8,204.82c-.09.04-.18.07-.27.11.05-.06.09-.11.13-.17,0,0,.14.06.14.06Z"/>
      <path class="cls-1" d="M114.6,214.02l-.2-.27s-.32.07-.32.07c.18.04.36.11.52.2Z"/>
      <path class="cls-1" d="M176.76,181.11c1.87-.41,3.75-.4,5.62,0-1.87.79-3.75.85-5.62,0Z"/>
      <path class="cls-1" d="M186.19,181.08c.55,0,1.09-.02,1.64-.03-.54.53-1.08.54-1.64.03Z"/>
      <path class="cls-1" d="M167.3,181.17c.6,0,1.19,0,1.78,0-.59.64-1.19.65-1.78,0Z"/>
      <path class="cls-1" d="M173.57,181.14c.33,0,.67-.01,1-.02-.33.49-.66.51-1,.02Z"/>
      <path class="cls-1" d="M45.7,191.8c1.56-2.75,2.66-5.55.8-8.62,3.4,2.71,3.06,6.38-.8,8.62Z"/>
      <path class="cls-1" d="M39.51,193.3c1.95.62,3.68-.27,5.45-.8-1.68,3.19-2.85,3.36-5.45.8Z"/>
      <path class="cls-1" d="M135.07,168.21c.26-.35.29-.97.97-.82-.32.27-.65.55-.97.82Z"/>
      <path class="cls-1" d="M37.18,191.57c.4.36.8.71,1.2,1.07-.4-.35-.8-.71-1.2-1.07Z"/>
      <path class="cls-1" d="M44.9,192.6c0-.6.32-.86.9-.87-.3.29-.6.58-.9.87Z"/>
      <path class="cls-1" d="M46.59,183.23c-.24-.23-.47-.46-.71-.69.24.23.47.46.71.69Z"/>
      <path class="cls-1" d="M102.26,171.09c.27-.55.55-1.11.82-1.66-.27.55-.55,1.11-.82,1.66Z"/>
      <path class="cls-1" d="M38.78,192.66c.27.25.54.5.8.74-.27-.25-.54-.5-.8-.74Z"/>
      <g>
        <path class="cls-1" d="M135.98,42.14c-2.35-5.25-1.82-10.34,1.62-14.81,3.64-4.73,8.89-5.82,14.44-4.61,3.63.79,6.68,2.93,8.67,6.26-1.26,2.28-3.13,4.13-4.75,6.12-1.64,2.02-3.94,3.63-6.74,4.32-3.85.95-7.5,2.89-11.66,2.03-.7-.14-1.19.17-1.59.7Z"/>
        <path class="cls-1" d="M135.98,42.14c.4-.53.89-.84,1.59-.7,4.16.86,7.81-1.08,11.66-2.03,2.8-.69,5.1-2.3,6.74-4.32,1.61-1.98,3.48-3.84,4.75-6.12,2.76,3.31,2.96,10.4.55,14.57-2.44,4.21-6.03,6.4-10.82,7.14-6.01.93-12.42-2.7-14.46-8.54Z"/>
      </g>
    </g>
    <g>
      <path class="cls-1" d="M69.77,419.54c-3.86,4.2-7.79,8.35-11.58,12.62-4.88,5.5-5.17,5.39-10.3.14-4.08-4.19-8.63-7.92-13.49-12.33-.38,2.84-.99,5.54-1.06,8.24-.21,8.14-.19,16.28-.29,24.42-.04,3.13-.23,6.22-4.49,6.36-4.29.14-5.35-2.69-5.35-6.2.03-15.45,0-30.9.34-46.35.05-2.09,1.76-5.6,3.2-5.88,2.5-.49,6.28.15,7.97,1.86,4.42,4.45,7.96,9.76,11.92,14.66,5.4,6.67,7.11,6.65,12.49.15,4.01-4.86,7.75-10.03,12.27-14.37,1.91-1.83,5.53-2.43,8.36-2.41.87,0,2.45,3.92,2.45,6.05.02,15.45-.27,30.9-.48,46.34-.04,3.11-.24,6.35-4.45,6.41-4.46.07-5.41-2.96-5.39-6.72.05-8.81.07-17.61.02-26.42-.01-1.93-.36-3.86-.56-5.78-.53-.27-1.07-.53-1.6-.8Z"/>
      <path class="cls-1" d="M233.12,347.52c0-7.47-.12-14.94.04-22.41.13-5.96,1.65-7.32,7.48-7.36,12.12-.07,24.24-.02,36.36-.24,4.16-.08,5.64,1.66,5.49,5.6-.15,4.06-2.64,4.19-5.79,4.15-8.3-.12-16.6-.08-24.89.09-5.47.11-7.87,2.45-8.43,7.7-1.38,12.94.76,14.5,12.66,9.27,3.5-1.53,7.03-2.97,10.55-4.46,3.84-1.63,5.33.37,4.33,3.62-.73,2.36-2.6,5.04-4.71,6.17-5.55,2.96-11.49,5.18-17.3,7.63-2.99,1.26-5.81,3.29-4.62,6.55.63,1.75,3.97,3.47,6.14,3.54,9.61.3,19.25.13,28.87-.14,3.57-.1,6.35.1,6.5,4.6.14,4.37-2.84,4.72-5.99,4.74-13.61.08-27.22.04-40.83.21-4.53.05-6.26-2.12-6.24-6.35.04-7.63.01-15.27.01-22.91.13,0,.25,0,.38,0Z"/>
      <path class="cls-1" d="M128.65,317.73c11.67.1,12.99,1.26,16.06,12.54,3.62,13.29,7.53,26.5,11.14,39.79.56,2.06,2.8,5.17-1.05,6.21-3.01.82-6.04.02-7.1-3.7-1.32-4.63-2.52-9.29-3.96-13.88-1.71-5.47-3.41-6.37-8.85-4.61-4.26,1.38-8.41,3.1-12.65,4.54-6.57,2.23-12.17,5.32-13.33,13.1-.18,1.21-.99,2.75-1.99,3.33-1.44.84-3.47,1.55-4.93,1.16-.99-.26-1.92-2.49-2.02-3.9-.13-1.93.39-3.96.92-5.87,3.37-12.15,6.6-24.36,10.32-36.41,3.64-11.8,4.86-12.42,17.44-12.31ZM137.36,338.57c-.59-2.4-.72-5.63-2.18-8.04-1.18-1.95-4.01-4.1-6.04-4.04-2.73.08-6.68,1.52-7.82,3.61-2.64,4.86-4.1,10.42-5.59,15.82-.32,1.18.88,3.61,2.02,4.19,3.02,1.52,17.48-4.92,18.9-8.09.39-.87.41-1.91.71-3.45Z"/>
      <path class="cls-1" d="M128.65,400.42c11.67.1,12.99,1.26,16.06,12.54,3.62,13.29,7.53,26.5,11.14,39.79.56,2.06,2.8,5.17-1.05,6.21-3.01.82-6.04.02-7.1-3.7-1.32-4.63-2.52-9.29-3.96-13.88-1.71-5.47-3.41-6.37-8.85-4.61-4.26,1.38-8.41,3.1-12.65,4.54-6.57,2.23-12.17,5.32-13.33,13.1-.18,1.21-.99,2.75-1.99,3.33-1.44.84-3.47,1.55-4.93,1.16-.99-.26-1.92-2.49-2.02-3.9-.13-1.93.39-3.96.92-5.87,3.37-12.15,6.6-24.36,10.32-36.41,3.64-11.8,4.86-12.42,17.44-12.31ZM137.36,421.26c-.59-2.4-.72-5.63-2.18-8.04-1.18-1.95-4.01-4.1-6.04-4.04-2.73.08-6.68,1.52-7.82,3.61-2.64,4.86-4.1,10.42-5.59,15.82-.32,1.18.88,3.61,2.02,4.19,3.02,1.52,17.48-4.92,18.9-8.09.39-.87.41-1.91.71-3.45Z"/>
      <path class="cls-1" d="M254.75,400.42c11.67.1,12.99,1.26,16.06,12.54,3.62,13.29,7.53,26.5,11.14,39.79.56,2.06,2.8,5.17-1.05,6.21-3.01.82-6.04.02-7.1-3.7-1.32-4.63-2.52-9.29-3.96-13.88-1.71-5.47-3.41-6.37-8.85-4.61-4.26,1.38-8.41,3.1-12.65,4.54-6.57,2.23-12.17,5.32-13.33,13.1-.18,1.21-.99,2.75-1.99,3.33-1.44.84-3.47,1.55-4.93,1.16-.99-.26-1.92-2.49-2.02-3.9-.13-1.93.39-3.96.92-5.87,3.37-12.15,6.6-24.36,10.32-36.41,3.64-11.8,4.86-12.42,17.44-12.31ZM263.46,421.26c-.59-2.4-.72-5.63-2.18-8.04-1.18-1.95-4.01-4.1-6.04-4.04-2.73.08-6.68,1.52-7.82,3.61-2.64,4.86-4.1,10.42-5.59,15.82-.32,1.18.88,3.61,2.02,4.19,3.02,1.52,17.48-4.92,18.9-8.09.39-.87.41-1.91.71-3.45Z"/>
      <path class="cls-1" d="M56.72,318.62c-2.7,9.34-5.36,18.36-7.91,27.42-2.11,7.51-3.9,15.11-6.17,22.58-2.49,8.2-10.5,11.54-18.1,7.57-1.56-.82-3.03-2.75-3.55-4.47-4.76-15.71-9.37-31.47-13.85-47.26-.69-2.44-1.53-5.66,2.27-6.53,3.98-.91,6.17,1.19,7.13,5.04,2.62,10.47,5.3,20.92,8.11,31.34.86,3.19,2.04,6.33,3.41,9.34.53,1.16,2.03,2.69,3,2.62,1.1-.07,2.42-1.56,3.06-2.75.94-1.72,1.45-3.7,1.97-5.61,3.04-11.22,5.99-22.46,9.05-33.67,1.67-6.13,4.38-7.55,11.58-5.62Z"/>
      <path class="cls-1" d="M172.78,399.7c2.11,1.77,4.81,3.17,6.22,5.38,3.64,5.73,6.48,11.96,10.08,17.72,2.74,4.38,4.58,4.34,7.13-.12,3.12-5.46,5.7-11.23,8.49-16.88,1.65-3.35,3.79-5.71,8.04-5.38,4.46.34,4.95,1.13,2.85,5.06-4.7,8.78-9.21,17.65-13.91,26.43-3.8,7.1-5.17,14.65-4.6,22.6.24,3.39-.86,5.5-4.64,5.45-3.51-.05-5.42-1.76-4.93-5.28,1.58-11.32-3.29-20.62-8.72-29.91-3.6-6.15-6.75-12.58-9.83-19.02-1.74-3.63-.7-5.06,3.84-6.05Z"/>
      <path class="cls-1" d="M220.04,335.01c-.68,9.78-.67,16.96-1.8,23.95-1.52,9.44-7.66,15.55-16.83,17.6-10.49,2.34-21.41,3.29-30.48-3.92-3.61-2.87-5.67-7.89-7.88-12.22-.66-1.3.26-4.99.99-5.15,2.8-.61,6.72-2.47,8.27,1.63,3.74,9.84,11.49,11.79,20.78,11.87,6.84.06,11-3.51,13.47-9.11,1.58-3.57,2.53-7.65,2.73-11.55.46-9.09.46-18.22.3-27.33-.06-3.33,1.79-3.6,4.06-3.44,2.72.19,6.45-1.01,6.4,3.92-.06,5.47-.01,10.95-.01,13.76Z"/>
      <path class="cls-1" d="M85.48,346.67c0,7.8.07,15.6-.03,23.39-.04,3.02-.16,6.22-4.5,6.36-4.41.14-5.37-2.89-5.37-6.23.03-15.77.2-31.53.44-47.3.05-3.39,1.68-5.73,5.47-5.74,4.22-.01,4.63,2.82,4.6,6.11-.06,7.8-.02,15.6-.02,23.41h-.6Z"/>
    </g>
  </g>
</svg>