<?xml version="1.0" encoding="UTF-8"?>
<svg id="Capa_2" data-name="Capa 2" xmlns="http://www.w3.org/2000/svg" viewBox="0 0 373.77 373.56">
  <defs>
    <style>
      .cls-1 {
        fill: #f0e4b6;
        stroke-width: 0px;
      }
    </style>
  </defs>
  <g id="Capa_1-2" data-name="Capa 1">
    <g>
      <path class="cls-1" d="M40.7,254.87c-9.22-17.1-13.35-35.57-15.9-54.69-1.23-9.22,1.13-15.46,7.73-21.82,14.2-13.7,27.63-28.22,41.32-42.46,1.69-1.75,2.82-1.35,3.74.51,5,9.99,12.92,17.7,20.35,25.75,6.19,6.71,13.09,12.74,17.97,20.65,2.47,4,6.54,5.58,11.33,4.03,4.28-1.38,6.61-4.58,7.02-8.83.46-4.76-1.68-9.07-6.14-10.42-9.75-2.95-15.27-10.96-21.95-17.41-7.51-7.25-14.69-15.04-18.53-25.12-3.62-9.5-2.76-18.45,3.39-26.69,13.88-18.57,36.46-20.14,52.66-3.61,5.24,5.34,10.19,10.97,15.37,16.37,1.06,1.11,2.15,3.14,4.03,2.17,1.56-.8,1.51-2.89,1.57-4.5.14-3.56-.95-6.9-2.3-10.15-1.01-2.43-2.48-4.7-2.84-7.92,21.4,2.9,43.13,1.18,63.97,7,16.95,4.73,31.75,13.26,44.33,26.01,13.32,13.49,27.7,25.94,41.37,39.1,6.78,6.53,12.99,13.66,19.1,21.82-10.45,0-20.91-.03-31.36.04-1.41,0-3.41-.69-4.12.75-.87,1.76,1,3.03,2.1,4.11,4.53,4.45,8.26,9.57,12.4,14.33,7.01,8.03,4.49,17.33,3.63,26.18-.45,4.69-9.55,9.42-15.43,9.45-18.82.09-37.63.17-56.45.32-4.16.03-8.31.37-12.47.57,1.7-2.27,4.18-1.7,6.44-1.64,19.44.5,38.85-.62,58.28-1.11,1.56-.04,3.57.5,4.09-1.8.6-2.63-1.7-2.66-3.22-3.54-2.29-1.32-4.68-1.57-7.21-1.46-6.63.3-13.26.8-19.9.85-17.79.13-35.57.11-53.36.06-2.62,0-5.34.4-7.83-.94,2.89-.21,5.78-.41,8.67-.62.76.83,1.52.81,2.27,0,1.91-.01,3.81-.02,5.72-.03.44.62.86.6,1.27-.02.93,0,1.86,0,2.79-.01,2.39,1.08,4.77,1,7.16,0,1.62,0,3.24-.02,4.86-.03.71.65,1.4.63,2.09-.04,15.45-.33,30.91-.4,46.37-.85,7.06-.21,4.05-4.57,4.68-7.63.92-4.53-2.07-4.08-4.99-4.08-23.61.07-47.21.07-70.82.09-1.79-1.13-3.82-.69-5.75-.86-1.57-.14-3.35-.6-3.26-2.31.21-3.75-2.66-4.29-4.98-5.52,3.32-.1,6.64-.25,9.96-.29,23.43-.29,46.86-.49,70.29-.87,7.61-.12,7.41-.34,7.63-8.05.1-3.51-1.11-3.78-4.21-3.72-27.08.51-54.15.77-81.23-.06-1.4-.04-2.73-.36-2.86,1.64-1.82-1.11-2.66-1.57-4.34,1.07-2,3.13-4.67,7.48-8.97,7.3-8.81-.37-10.17-.11-13.71,6.84-.03-.81-.04-1.62-.11-2.42-.54-6.44-6.34-11.4-12.18-10.41-5.71.97-9.17,6.9-7.77,13.32-.46.11-1.21.46-1.33.31-2.95-3.75-7.52-1.64-10.88-3.03-4.99-2.07-6.52.64-8.32,3.99-.1.19-.61.17-.93.24,2.58-5.53.63-11.62-4.41-13.76-5.32-2.26-9.44,0-12.07,6.63-2.56-4.84-4.48-.32-4.81.92-1.08,4.01-4.29,3.92-7.17,4.99-5.03,1.87-12.21.79-13.04,9.01-.08.77-2.25,2.04-3.25,1.87-3.33-.57-8.07-.67-9.54-2.81-3.08-4.51-6.93-2.33-10.19-2.34-1.81,0-6.75,1.72-5.96,3.06,2.76,4.69-1.17,6.01-3,8.46-4.25-2.77-8.34-2.74-11.7,1.27-2.88,3.44-2.82,7.16.12,10.69-5.33.44-5.91,3.94-5.38,8.23.16,1.28.07,2.59.09,3.88ZM182.38,132.29c.11,1.7,1.65,2.35,2.68,3.36,6.01,5.93,12.61,11.19,18.6,17.2,8.04,8.08,17.92,13.03,29.97,11.87,4.47-.43,8.99-.3,13.47-.62,5.98-.42,11.17,1.14,15.38,5.55,1.51,1.59,3.28,2.81,5.3,3.68,2.78,1.2,4.41.43,5-2.64,1.01-5.25-1.46-9.17-4.52-13.01-6.84-8.58-15.41-15.42-23.03-23.21-1.27-1.3-2.62-1.86-4.39-1.88-7.99-.06-15.99-.44-23.98-.22-11.49.32-22.97.44-34.47-.08ZM101.68,117.01c-.04,9.88,5.88,15.97,13.05,21.69,10.82,8.63,16.43,8.6,25.69-1.37,1.56-1.68,2.89-3.62,4.05-5.6.64-1.09.95-2.51.97-3.78.14-12.83-6.75-22.92-18.84-27.77-12.29-4.93-24.91,3.6-24.92,16.84ZM151.61,177.02c.05,5.13,5.84,10.73,11.1,10.74,6.43.01,11.7-5.25,11.79-11.78.08-5.94-5.51-11.35-11.64-11.28-5.98.08-11.31,5.9-11.24,12.31ZM82.89,187.83c4.87.12,9.65-4.76,9.81-10.03.16-5.35-4.3-10.04-9.58-10.05-4.89-.01-10.41,5.04-10.42,9.53-.02,4.7,5.52,10.43,10.19,10.55ZM92.67,211.94c-.06-6.86-3.52-11.3-8.7-11.19-4.64.1-8.54,4.33-8.56,9.3-.02,4.76,3.81,8.99,8.18,9,4.3.01,9.11-3.75,9.09-7.11ZM51.63,218.05c4.46-.05,8.96-4.28,8.97-8.43,0-4.26-4.83-8.99-9.14-8.95-4.8.04-8.42,3.84-8.31,8.72.12,4.9,3.85,8.72,8.48,8.67Z"/>
      <path class="cls-1" d="M172.49,212.76c3.54-6.94,4.9-7.2,13.71-6.84,4.3.18,6.97-4.18,8.97-7.3,1.69-2.64,2.52-2.18,4.34-1.07,1.16,3.75-1.57,7.64.42,11.35,2.32,1.22,5.2,1.76,4.98,5.52-.1,1.71,1.69,2.17,3.26,2.31,1.93.18,3.96-.27,5.75.86-2.95.66-5.92.26-8.88.11-1.19-.06-2.55-.22-2.4,1.54.33,3.87-.96,7.92,1.23,11.59,2.48,1.34,5.21.93,7.83.94,17.79.05,35.58.08,53.36-.06,6.63-.05,13.26-.55,19.9-.85,2.52-.11,4.92.13,7.21,1.46,1.52.88,3.82.91,3.22,3.54-.52,2.3-2.53,1.76-4.09,1.8-19.42.48-38.83,1.61-58.28,1.11-2.25-.06-4.73-.63-6.44,1.64-4.64.83-9.32.49-13.92-.07-2.86-.34-4.15-.03-4.48,3.27-.76,7.59-.65,8.01,7.01,7.99,28.66-.08,57.31-.24,85.97-.3,1.5,0,3.63-1.02,4.39,1.07.68,1.85-1.28,2.61-2.27,3.87-7.04,8.96-16.64,11.61-27.36,11.52-33.81-.29-67.63.65-101.41-1.83-21.63-1.58-37.35-11.64-46.96-31.17-1.14-2.32-2.02-5.24-5.18-5.57-3.08-.32-6.81-1.53-8.99,1.21-1.96,2.46-.53,5.76.5,8.59,1.27,3.5,3.63,6.34,5.84,9.26,1.68,2.22,3.37,4.43,5.02,6.59-1.15,1.53-2.41.89-3.45.95-5.28.33-7.76,2.82-7.57,7.72.16,4.25,3.22,6.94,8.01,7.08.8.02,1.59.14,2.39.21,3.47-1.44,6.94-1.66,10.67-.84,2.11.46,4.46,1.3,6.69.06,1.4.03,2.59.45,3.25,1.81,0,0,.4-.09.4-.09l.26.34c1.93-.12,3.5.94,5.16,1.65,10.23,4.44,20.69,7.11,32.05,5.77,4.9-.58,9.97.2,14.96.44,1.08.05,2.55-.23,2.97,1.21.31,1.07-.65,1.81-1.36,2.5-5.9,5.72-9.93,12.86-14.55,19.53-4.28,6.18-5.33,13.63-5.84,20.93-.73,10.3-.82,20.63-.63,30.97.07,3.88,1.33,5.19,5.21,5.24,33.99.46,65.57-7.67,94.55-25.71,18.74-11.67,33.85-27.02,47.24-44.41,11.05-14.35,19.18-30.08,25.45-47.01,5.25-14.17,7.2-28.88,8.59-43.72.37-3.93,2.04-4.46,5.28-4.52,9.08-.16,9.08-.26,8.56,8.58-1.6,27.55-10.22,52.88-24.23,76.5-20.37,34.34-48,61.02-84.76,77.01-41.68,18.13-84.6,21.75-128.75,8.83-35.5-10.39-64.21-30.86-89.28-57.23-7.1-7.47-12.83-15.87-18.37-24.63-10.27-16.23-17.06-33.7-22.46-51.89-.32-1.08-.25-2.27-.37-3.41,1.02-1.06,1.23-2.06-.2-2.95,0,0,.07.13.07.13.07-.82.11-1.64.2-2.46.3-2.72-1.17-6.52,3.35-6.94,4.03-.37,6.42,2,7.3,5.84.32,1.41,1.02,2.39,2.29,3,4.24,8.49,5.77,17.9,9.22,26.69,7.52,19.16,19.08,35.55,31.82,51.5,10.73,13.44,25.52,21.13,39.07,30.63,14.98,10.5,31.74,16.59,49.8,19.13,3.36.47,9.33,1.71,9.56-.5.38-3.54-5.03-2.54-7.92-3.36-14.93-4.23-29.49-9.25-42.22-18.48-.27-.2-.55-.38-.81-.58-2.1-1.67-5.24-3.71-4.54-6.05.71-2.39,4.4-1.15,6.76-1.18,15.99-.17,31.99-.52,47.97-.1,6.17.16,5.43-3.37,5.81-7.14.47-4.61-2.66-4.21-5.46-4.21-23.16,0-46.31.01-69.47.13-2.81.01-5.19-.47-7.36-2.35-15.66-13.6-27.92-29.79-37.1-48.36-.21-.42-.18-.96-.26-1.45,1.42-2.54-.22-3.77-2.1-4.9,0,0,.09.12.09.12-.02-1.3.06-2.6-.09-3.88-.53-4.29.05-7.79,5.38-8.23.25.24.5.47.75.71.51.45,1.02.91,1.52,1.36,0,0,.27-.22.27-.22,0,0,.25.25.25.25.34.32.68.63,1.02.95,0,0-.09-.13-.09-.13,3.33,3.27,4.81,3.05,6.95-1.02,0,0-.07.14-.07.14.38-.37.76-.74,1.14-1.11l-.13.08c4.92-2.86,5.35-7.54,1.02-10.99,0,0,.12.08.12.08-.3-.29-.6-.59-.9-.88-.09-.39-.18-.78-.28-1.17,1.83-2.45,5.76-3.77,3-8.46-.79-1.34,4.15-3.07,5.96-3.06,3.26.01,7.11-2.17,10.19,2.34,1.47,2.15,6.2,2.24,9.54,2.81.99.17,3.17-1.1,3.25-1.87.84-8.22,8.01-7.15,13.04-9.01,2.88-1.07,6.09-.98,7.17-4.99.33-1.24,2.25-5.77,4.81-.92.06,1.14.1,2.28.18,3.42.49,7.12,6.15,10.39,12.48,7.2.79-.4,1.31-1.56,2.49-.89.35-.71.7-1.41,1.04-2.12l-.07-.37.36-.13c.32-.08.83-.05.93-.24,1.8-3.35,3.32-6.06,8.32-3.99,3.35,1.39,7.92-.72,10.88,3.03.12.15.87-.19,1.33-.3,7.7,8.59,12.17,8.7,19.02.45.41-.35.83-.69,1.24-1.04,0,0-.22.1-.22.1ZM118.34,297.03v.51c11.32,0,22.64.07,33.96-.04,3.98-.04,8.01-.17,11.93-.81,5.33-.86,5.3-5.76,5.42-9.44.13-4.03-3.77-2.12-5.76-2.15-10.15-.16-20.3.2-30.45.08-18.81-.22-37.61-.75-56.41.28-1.43.08-3.18-.36-4.11,1.16-1.86,3.03,1.94,10.34,5.48,10.37,13.31.09,26.63.03,39.94.03ZM92.09,238.14c-.01-7.2-1.34-8.89-6.93-8.81-6.57.1-8.94,2.32-9.04,8.48-.09,5.66,2.37,8.03,8.29,7.97,6.1-.06,7.7-1.66,7.69-7.65ZM92.55,262.96c.03-4.87-2.8-7.79-7.6-7.87-5.24-.08-8.86,3.13-8.89,7.9-.03,5.32,3.19,8.45,8.63,8.37,4.63-.07,7.83-3.49,7.86-8.4ZM163.38,231.03c-7.29.05-10.26,1.91-10.28,6.43-.02,4.89,3.71,8.25,9.14,8.23,5.12-.02,8.39-3.07,8.31-7.75-.08-4.44-2.68-6.94-7.18-6.91ZM60.52,262.08c-.41-2.91-1.25-6.16-5.61-6.34-3.23-.13-7.09,3.54-7.09,6.49,0,3.54,4.02,8.29,6.86,8.11,2.89-.19,5.91-4.16,5.83-8.26Z"/>
      <path class="cls-1" d="M356.73,150.64c-2.93-11.58-5.64-23.23-10.85-34.08-10.78-22.47-24.46-42.95-43.31-59.41-17.34-15.14-37.02-26.61-58.81-34.36-28.5-10.13-57.81-11.63-87.29-6.9-38.94,6.25-71.52,25.57-97.57,54.46-22.22,24.65-37.65,53.59-42.71,87.09-.94,6.24-1.28,12.59-1.64,18.9-.15,2.61-.99,3.46-3.59,3.19-13.26-1.37-11.41,1.29-9.94-11.27C9.16,99.06,45.03,49.08,107.08,17.72,137.4,2.4,169.77-1.58,203.24.52c29.27,1.83,56.24,11.01,81.18,26.05,36.7,22.13,61.79,54.1,77.6,93.62,3.29,8.23,5.37,16.84,6.88,25.57-1.34-.23-2.11-1.21-2.19-2.39-.24-3.77-3.3-4.5-5.63-3.91-2.69.69-4.25,3.36-3.6,6.55.34,1.66.7,3.27-.75,4.62Z"/>
      <path class="cls-1" d="M356.73,150.64c1.45-1.35,1.09-2.96.75-4.62-.65-3.19.91-5.87,3.6-6.55,2.32-.59,5.39.14,5.63,3.91.08,1.18.84,2.15,2.19,2.39,0,0-.15-.1-.15-.1-1.53,5.67.03,10.59,3.65,15.02.99,3.04,1.12,6.19,1.26,9.35.41,9.64.4,9.43-9.39,9.66-4.12.1-5.57-1.14-5.48-5.27.17-7.98-1.27-15.86-2.04-23.78Z"/>
      <path class="cls-1" d="M17.81,225.31c-1.27-.61-1.97-1.59-2.29-3-.88-3.84-3.27-6.21-7.3-5.84-4.52.42-3.04,4.22-3.35,6.94-.09.82-.14,1.64-.2,2.46-3.5-9.17-3.15-18.88-4.03-28.42-.07-.73.12-1.55.81-1.59,3.82-.18,7.65-.31,11.48-.25.93.01.89,1.21.92,2.04.36,9.35,2.77,18.41,3.97,27.65Z"/>
      <path class="cls-1" d="M141.47,270.01c-2.23,1.24-4.57.4-6.69-.06-3.73-.82-7.2-.6-10.67.84,3.14-2.77,4.81-6.24,4.96-10.44l-.18-.08c3.86,3.68,7.67,7.41,12.58,9.74Z"/>
      <path class="cls-1" d="M372.39,160.69c-3.62-4.42-5.18-9.34-3.65-15.02,2.8,4.62,2.39,10.02,3.65,15.02Z"/>
      <path class="cls-1" d="M40.61,254.75c1.87,1.13,3.52,2.36,2.1,4.9-.7-1.63-1.4-3.27-2.1-4.9Z"/>
      <path class="cls-1" d="M4.6,225.74c1.43.89,1.22,1.9.2,2.95-.07-.98-.13-1.97-.2-2.95Z"/>
      <path class="cls-1" d="M129.07,260.35c-.11.05-.23.09-.34.14.06-.07.12-.14.17-.22,0,0,.17.08.17.08Z"/>
      <path class="cls-1" d="M145.38,272.07l-.26-.34s-.4.09-.4.09c.23.05.45.13.66.25Z"/>
      <path class="cls-1" d="M224.59,230.13c2.39-.53,4.77-.5,7.16,0-2.39,1-4.77,1.08-7.16,0Z"/>
      <path class="cls-1" d="M236.6,230.1c.7-.01,1.39-.02,2.09-.04-.69.67-1.38.68-2.09.04Z"/>
      <path class="cls-1" d="M212.54,230.21c.76,0,1.52,0,2.27,0-.76.82-1.51.83-2.27,0Z"/>
      <path class="cls-1" d="M220.53,230.17c.43,0,.85-.02,1.27-.02-.41.62-.84.65-1.27.02Z"/>
      <path class="cls-1" d="M57.59,243.76c1.99-3.51,3.38-7.07,1.02-10.99,4.33,3.45,3.89,8.13-1.02,10.99Z"/>
      <path class="cls-1" d="M49.7,245.66c2.48.79,4.68-.34,6.95-1.02-2.14,4.07-3.63,4.29-6.95,1.02Z"/>
      <path class="cls-1" d="M171.47,213.7c.33-.44.37-1.24,1.24-1.04-.41.35-.83.7-1.24,1.04Z"/>
      <path class="cls-1" d="M46.73,243.46c.51.45,1.02.9,1.52,1.36-.51-.45-1.02-.91-1.52-1.36Z"/>
      <path class="cls-1" d="M56.58,244.78c0-.76.41-1.1,1.14-1.11-.38.37-.76.74-1.14,1.11Z"/>
      <path class="cls-1" d="M58.73,232.84c-.3-.29-.6-.59-.9-.88.3.29.6.59.9.88Z"/>
      <path class="cls-1" d="M129.66,217.36c.35-.7.69-1.41,1.04-2.11-.35.7-.7,1.41-1.04,2.11Z"/>
      <path class="cls-1" d="M48.77,244.85c.34.32.68.63,1.02.95-.34-.32-.68-.63-1.02-.95Z"/>
      <g>
        <path class="cls-1" d="M172.64,53.06c-2.99-6.69-2.32-13.17,2.06-18.88,4.64-6.03,11.33-7.41,18.41-5.87,4.63,1.01,8.51,3.73,11.04,7.98-1.61,2.91-3.99,5.27-6.05,7.79-2.1,2.57-5.02,4.62-8.59,5.5-4.91,1.2-9.56,3.68-14.85,2.59-.89-.18-1.51.22-2.02.89Z"/>
        <path class="cls-1" d="M172.64,53.06c.51-.67,1.13-1.08,2.02-.89,5.3,1.1,9.95-1.38,14.85-2.59,3.57-.88,6.49-2.93,8.59-5.5,2.06-2.52,4.44-4.89,6.05-7.79,3.52,4.22,3.77,13.25.7,18.56-3.11,5.37-7.69,8.15-13.79,9.1-7.66,1.19-15.83-3.44-18.42-10.88Z"/>
      </g>
    </g>
  </g>
</svg>