<?xml version="1.0" encoding="UTF-8"?>
<svg id="Capa_2" data-name="Capa 2" xmlns="http://www.w3.org/2000/svg" viewBox="0 0 479.66 245.3">
  <defs>
    <style>
      .cls-1 {
        fill: #f0e4b6;
        stroke-width: 0px;
      }
    </style>
  </defs>
  <g id="Capa_1-2" data-name="Capa 1">
    <g>
      <path class="cls-1" d="M108.6,175.87c-6.64,7.22-13.38,14.35-19.89,21.68-8.39,9.46-8.89,9.26-17.68.24-7.01-7.19-14.82-13.61-23.18-21.18-.65,4.88-1.7,9.51-1.82,14.16-.35,13.98-.33,27.96-.49,41.95-.06,5.38-.4,10.69-7.71,10.92-7.38.23-9.19-4.62-9.18-10.65.05-26.54,0-53.08.59-79.61.08-3.59,3.02-9.61,5.51-10.1,4.3-.85,10.78.26,13.69,3.19,7.59,7.64,13.67,16.76,20.48,25.19,9.27,11.46,12.22,11.43,21.45.25,6.9-8.36,13.31-17.23,21.07-24.69,3.28-3.15,9.5-4.18,14.36-4.15,1.49,0,4.2,6.74,4.21,10.4.04,26.53-.46,53.07-.83,79.61-.07,5.34-.41,10.91-7.65,11.02-7.65.11-9.29-5.08-9.25-11.54.09-15.13.12-30.25.03-45.38-.02-3.31-.62-6.62-.96-9.93-.92-.46-1.83-.91-2.75-1.37Z"/>
      <path class="cls-1" d="M389.18,52.15c0-12.83-.21-25.67.07-38.49.22-10.24,2.83-12.58,12.84-12.64,20.82-.13,41.64-.03,62.45-.42,7.14-.13,9.68,2.84,9.43,9.62-.26,6.98-4.53,7.21-9.95,7.13-14.25-.2-28.51-.13-42.76.15-9.4.19-13.52,4.21-14.48,13.22-2.37,22.23,1.3,24.9,21.75,15.93,6.01-2.63,12.08-5.11,18.12-7.67,6.59-2.8,9.16.64,7.44,6.22-1.25,4.05-4.46,8.66-8.09,10.6-9.52,5.09-19.73,8.9-29.72,13.11-5.14,2.17-9.97,5.64-7.94,11.26,1.08,3,6.82,5.97,10.55,6.08,16.51.52,33.07.22,49.59-.24,6.14-.17,10.91.18,11.16,7.9.25,7.51-4.87,8.11-10.3,8.14-23.38.15-46.76.07-70.13.35-7.78.09-10.75-3.64-10.71-10.91.07-13.11.02-26.23.02-39.34.22,0,.44,0,.66,0Z"/>
      <path class="cls-1" d="M209.74.98c20.04.17,22.32,2.17,27.59,21.55,6.21,22.83,12.93,45.51,19.14,68.34.96,3.54,4.81,8.87-1.81,10.67-5.18,1.41-10.38.03-12.2-6.35-2.27-7.94-4.33-15.95-6.8-23.84-2.94-9.4-5.86-10.94-15.21-7.92-7.32,2.36-14.45,5.33-21.74,7.8-11.29,3.83-20.9,9.14-22.9,22.51-.31,2.09-1.71,4.72-3.41,5.72-2.47,1.45-5.95,2.67-8.47,1.99-1.7-.45-3.3-4.28-3.47-6.7-.23-3.31.67-6.8,1.58-10.08,5.8-20.88,11.34-41.84,17.73-62.53C186.04,1.86,188.13.8,209.74.98ZM224.7,36.78c-1.01-4.13-1.23-9.66-3.74-13.81-2.03-3.35-6.89-7.05-10.38-6.94-4.68.14-11.48,2.6-13.43,6.2-4.54,8.35-7.05,17.9-9.6,27.17-.56,2.02,1.51,6.21,3.47,7.19,5.18,2.6,30.03-8.45,32.47-13.9.67-1.5.7-3.29,1.21-5.93Z"/>
      <path class="cls-1" d="M209.74,143.02c20.04.17,22.32,2.17,27.59,21.55,6.21,22.83,12.93,45.51,19.14,68.34.96,3.54,4.81,8.87-1.81,10.67-5.18,1.41-10.38.03-12.2-6.35-2.27-7.94-4.33-15.95-6.8-23.84-2.94-9.4-5.86-10.94-15.21-7.92-7.32,2.36-14.45,5.33-21.74,7.8-11.29,3.83-20.9,9.14-22.9,22.51-.31,2.09-1.71,4.72-3.41,5.72-2.47,1.45-5.95,2.67-8.47,1.99-1.7-.45-3.3-4.28-3.47-6.7-.23-3.31.67-6.8,1.58-10.08,5.8-20.88,11.34-41.84,17.73-62.53,6.26-20.27,8.35-21.33,29.96-21.15ZM224.7,178.82c-1.01-4.13-1.23-9.66-3.74-13.81-2.03-3.35-6.89-7.05-10.38-6.94-4.68.14-11.48,2.6-13.43,6.2-4.54,8.35-7.05,17.9-9.6,27.17-.56,2.02,1.51,6.21,3.47,7.19,5.18,2.6,30.03-8.45,32.47-13.9.67-1.5.7-3.29,1.21-5.93Z"/>
      <path class="cls-1" d="M426.35,143.02c20.04.17,22.32,2.17,27.59,21.55,6.21,22.83,12.93,45.51,19.14,68.34.96,3.54,4.81,8.87-1.81,10.67-5.18,1.41-10.38.03-12.2-6.35-2.27-7.94-4.33-15.95-6.8-23.84-2.94-9.4-5.86-10.94-15.21-7.92-7.32,2.36-14.45,5.33-21.74,7.8-11.29,3.83-20.9,9.14-22.9,22.51-.31,2.09-1.71,4.72-3.41,5.72-2.47,1.45-5.95,2.67-8.47,1.99-1.7-.45-3.3-4.28-3.47-6.7-.23-3.31.67-6.8,1.58-10.08,5.8-20.88,11.34-41.84,17.73-62.53,6.26-20.27,8.35-21.33,29.96-21.15ZM441.3,178.82c-1.01-4.13-1.23-9.66-3.74-13.81-2.03-3.35-6.89-7.05-10.38-6.94-4.68.14-11.48,2.6-13.43,6.2-4.54,8.35-7.05,17.9-9.6,27.17-.56,2.02,1.51,6.21,3.47,7.19,5.18,2.6,30.03-8.45,32.47-13.9.67-1.5.7-3.29,1.21-5.93Z"/>
      <path class="cls-1" d="M86.19,2.51c-4.63,16.04-9.21,31.54-13.58,47.11-3.63,12.9-6.7,25.96-10.6,38.78-4.29,14.09-18.04,19.83-31.09,13-2.68-1.4-5.2-4.72-6.1-7.67C16.64,66.74,8.73,39.67,1.02,12.55-.17,8.37-1.6,2.82,4.92,1.33,11.76-.24,15.52,3.36,17.18,9.99c4.5,17.98,9.1,35.93,13.92,53.83,1.48,5.48,3.51,10.87,5.86,16.04.91,1.99,3.49,4.61,5.15,4.5,1.89-.13,4.16-2.68,5.26-4.72,1.61-2.96,2.5-6.35,3.39-9.64,5.22-19.27,10.29-38.58,15.54-57.84,2.87-10.53,7.53-12.97,19.89-9.65Z"/>
      <path class="cls-1" d="M285.54,141.79c3.63,3.04,8.26,5.44,10.68,9.25,6.25,9.84,11.13,20.55,17.31,30.44,4.7,7.53,7.87,7.46,12.24-.2,5.36-9.38,9.79-19.29,14.58-28.99,2.84-5.75,6.51-9.8,13.81-9.25,7.67.58,8.5,1.95,4.89,8.69-8.07,15.08-15.83,30.32-23.89,45.39-6.52,12.19-8.89,25.16-7.91,38.82.42,5.83-1.48,9.45-7.97,9.36-6.03-.08-9.31-3.03-8.47-9.07,2.72-19.44-5.66-35.42-14.99-51.38-6.18-10.57-11.59-21.61-16.89-32.66-2.99-6.23-1.21-8.69,6.6-10.4Z"/>
      <path class="cls-1" d="M366.72,30.67c-1.17,16.8-1.15,29.13-3.09,41.14-2.62,16.22-13.15,26.71-28.92,30.23-18.02,4.02-36.78,5.65-52.36-6.73-6.2-4.94-9.75-13.56-13.53-20.99-1.14-2.24.45-8.58,1.7-8.85,4.81-1.05,11.53-4.24,14.21,2.8,6.42,16.91,19.73,20.24,35.69,20.39,11.75.1,18.89-6.03,23.14-15.66,2.71-6.13,4.35-13.14,4.69-19.84.79-15.62.78-31.3.52-46.94-.1-5.72,3.08-6.18,6.97-5.91,4.67.33,11.08-1.73,10.99,6.73-.09,9.4-.02,18.8-.02,23.64Z"/>
      <path class="cls-1" d="M135.58,50.69c0,13.39.11,26.79-.06,40.18-.07,5.19-.27,10.68-7.72,10.92-7.57.25-9.23-4.97-9.22-10.7.06-27.08.35-54.16.75-81.24C119.43,4.05,122.23.02,128.74,0c7.25-.02,7.95,4.84,7.9,10.49-.1,13.4-.03,26.8-.03,40.21h-1.02Z"/>
    </g>
  </g>
</svg>